<?xml version="1.0" encoding="UTF-8"?>
<svg version="1.1" xmlns="http://www.w3.org/2000/svg" width="1254" height="1254">
<path d="M0 0 C413.82 0 827.64 0 1254 0 C1254 413.82 1254 827.64 1254 1254 C840.18 1254 426.36 1254 0 1254 C0 840.18 0 426.36 0 0 Z " fill="#000000" transform="translate(0,0)"/>
<path d="M0 0 C18.15 0 36.3 0 55 0 C55.00879936 7.02253304 55.00879936 7.02253304 55.01777649 14.18693542 C55.07297335 57.13688321 55.14294289 100.08678689 55.22898628 143.03668435 C55.2402542 148.66792932 55.25139269 154.29917454 55.26245117 159.93041992 C55.2657567 161.6120116 55.2657567 161.6120116 55.269129 163.32757483 C55.30448391 181.47032503 55.32935825 199.6130752 55.35034702 217.75584706 C55.37212345 236.37741172 55.4051914 254.99893174 55.44870156 273.62045842 C55.47518648 285.10730504 55.49290513 296.59409606 55.49934604 308.0809717 C55.50460957 315.96212479 55.52085899 323.84320798 55.54566566 331.72432359 C55.55964752 336.26864111 55.56886387 340.81283357 55.56500816 345.35717392 C55.56157969 349.52449675 55.57206701 353.69155321 55.59323552 357.85882155 C55.59847231 359.35970672 55.59877133 360.86061978 55.59339563 362.36150446 C55.52642177 383.19634504 61.07147595 402.28393439 75.53125 417.68359375 C95.1034582 436.04802328 120.8716443 436.34218964 146 437 C146 454.16 146 471.32 146 489 C115.79053254 489.30059172 115.79053254 489.30059172 104 487 C103.30680664 486.87109375 102.61361328 486.7421875 101.89941406 486.609375 C70.18237632 480.62345962 42.63506124 465.12652174 23 439 C18.2282197 432.00528877 14.24227654 424.87292087 11.0078125 417.046875 C10.17548883 414.83570728 10.17548883 414.83570728 8 414 C7.74371826 414.56364258 7.48743652 415.12728516 7.22338867 415.70800781 C-10.65964138 449.21147741 -52.02804711 471.00707554 -86.625 482.25 C-93.25579411 484.18005003 -99.99174402 485.70165884 -106.73828125 487.16796875 C-107.36774658 487.30485107 -107.99721191 487.4417334 -108.64575195 487.58276367 C-115.13057864 488.73205008 -121.44033518 489.16646678 -128.01171875 489.203125 C-129.27509567 489.21371445 -129.27509567 489.21371445 -130.56399536 489.22451782 C-183.49471627 489.56742884 -227.53689055 475.53991615 -267 439 C-270.63 435.37 -274.26 431.74 -278 428 C-278.33 519.41 -278.66 610.82 -279 705 C-297.15 705 -315.3 705 -334 705 C-334 472.68 -334 240.36 -334 1 C-315.85 1 -297.7 1 -279 1 C-278.99413376 4.96679276 -278.98826752 8.93358551 -278.98222351 13.02058411 C-278.92696491 49.45645483 -278.85695837 85.89227355 -278.77101372 122.32808523 C-278.75974651 127.11040617 -278.74860791 131.8927274 -278.73754883 136.67504883 C-278.73534514 137.62706166 -278.73314146 138.57907449 -278.730871 139.55993619 C-278.69556696 154.94389148 -278.670664 170.32784674 -278.64965298 185.71182743 C-278.62783587 201.51517485 -278.5947297 217.31847002 -278.55129844 233.12177294 C-278.52488321 242.86123503 -278.50711341 252.60063211 -278.50065396 262.34012821 C-278.49536891 269.03272961 -278.47904843 275.72524944 -278.45433434 282.41780702 C-278.44042524 286.2702324 -278.43110832 290.12251213 -278.43499184 293.97496414 C-278.54963914 322.4430852 -278.54963914 322.4430852 -272 350 C-271.70730225 350.81194824 -271.41460449 351.62389648 -271.11303711 352.46044922 C-266.06804056 365.75564979 -258.51644076 378.43001499 -249 389 C-248.55543457 389.50724609 -248.11086914 390.01449219 -247.65283203 390.53710938 C-237.43352023 402.18705654 -226.19417657 410.95069805 -213 419 C-212.09507812 419.55816406 -211.19015625 420.11632812 -210.2578125 420.69140625 C-202.8318704 425.01380112 -194.92241694 427.6752487 -186.80444336 430.37304688 C-185.30985569 430.89234077 -183.84315046 431.49109906 -182.38671875 432.109375 C-179.49607646 433.18804348 -176.7435075 433.59009241 -173.6875 434 C-170.11807861 434.48223787 -166.77404788 435.06185207 -163.29516602 436.01416016 C-159.14292196 437.06326461 -155.09939554 437.32134697 -150.828125 437.3359375 C-150.07183304 437.34422577 -149.31554108 437.35251404 -148.53633118 437.36105347 C-146.10735207 437.38025587 -143.67904275 437.38039195 -141.25 437.375 C-140.42152557 437.37512085 -139.59305115 437.3752417 -138.73947144 437.37536621 C-126.06840769 437.34898318 -114.24149179 436.47182643 -102 433 C-100.67255442 432.658804 -99.34443946 432.32020026 -98.015625 431.984375 C-65.7555461 423.40891099 -35.91482393 401.50755412 -18.97265625 372.6328125 C-7.05060347 351.01916725 -0.68144644 330.07456024 -0.7215271 305.20596313 C-0.7128385 303.23404041 -0.7128385 303.23404041 -0.70397437 301.22228086 C-0.68834598 297.6167936 -0.6847533 294.0113846 -0.68332577 290.40586758 C-0.67960132 286.50148795 -0.66443107 282.59714978 -0.65071106 278.6927948 C-0.62852921 271.94262765 -0.61346162 265.19247542 -0.60334396 258.44227982 C-0.58870541 248.68285653 -0.56315435 238.92348529 -0.53501268 229.1640927 C-0.48963832 213.32685689 -0.45298501 197.48961354 -0.421875 181.65234375 C-0.39165102 166.27570271 -0.35728316 150.89908005 -0.31738281 135.52246094 C-0.31492126 134.57328748 -0.31245972 133.62411402 -0.30992357 132.64617772 C-0.29754823 127.8840477 -0.28509184 123.12191789 -0.27259517 118.35978818 C-0.16916759 78.90655029 -0.08045987 39.45329092 0 0 Z " fill="#EEE4D2" transform="translate(767,306)"/>
<path d="M0 0 C18.15 0 36.3 0 55 0 C55 122.76 55 245.52 55 372 C54.67 372 54.34 372 54 372 C54 249.57 54 127.14 54 1 C36.84 1.33 19.68 1.66 2 2 C2.00222061 5.81725143 2.00444122 9.63450287 2.00672913 13.56742859 C2.02664273 48.60032039 2.04156418 83.63321148 2.05106533 118.6661077 C2.05231598 123.26088496 2.05361031 127.85566221 2.05493164 132.45043945 C2.05519395 133.36514815 2.05545626 134.27985685 2.05572652 135.222284 C2.06007372 150.01861604 2.06795605 164.81494418 2.0771528 179.61127391 C2.08651575 194.80209314 2.09206121 209.99291033 2.09408849 225.18373233 C2.09545823 234.55162178 2.09977907 243.91950022 2.10791647 253.28738628 C2.11321652 259.71779473 2.11479689 266.14819752 2.11350138 272.578608 C2.11286309 276.28443867 2.11381762 279.99025012 2.11920547 283.69607735 C2.12501942 287.72465864 2.12297608 291.75319949 2.12025452 295.78178406 C2.12316736 296.93843825 2.1260802 298.09509243 2.12908131 299.28679675 C2.11524401 306.89876741 1.68356544 314.4192759 1 322 C0.67 322 0.34 322 0 322 C0 215.74 0 109.48 0 0 Z " fill="#CCC3B2" transform="translate(767,306)"/>
<path d="M0 0 C1.32 1.32 2.64 2.64 4 4 C3.01 4 2.02 4 1 4 C1 94.09 1 184.18 1 277 C0.67 277 0.34 277 0 277 C0 185.59 0 94.18 0 0 Z " fill="#201F1D" transform="translate(488,733)"/>
<path d="M0 0 C0.33 0.99 0.66 1.98 1 3 C-1.31 5.31 -3.62 7.62 -6 10 C-6.66 9.34 -7.32 8.68 -8 8 C-5.36 5.36 -2.72 2.72 0 0 Z " fill="#E3D9C7" transform="translate(732,700)"/>
<path d="M0 0 C0.33 0 0.66 0 1 0 C2.25 7.625 2.25 7.625 0 11 C-0.66 11 -1.32 11 -2 11 C-1.34 7.37 -0.68 3.74 0 0 Z " fill="#C8C1B2" transform="translate(763,641)"/>
<path d="M0 0 C0.99 0.33 1.98 0.66 3 1 C-0.465 3.97 -0.465 3.97 -4 7 C-4.66 6.34 -5.32 5.68 -6 5 C-1.60546875 0.99609375 -1.60546875 0.99609375 0 0 Z " fill="#121210" transform="translate(748,750)"/>
<path d="M0 0 C0.99 0.66 1.98 1.32 3 2 C-0.82320557 3.42258812 -3.91281305 4.24042276 -8 4 C-7 2 -7 2 -3.625 0.75 C-1.830625 0.37875 -1.830625 0.37875 0 0 Z " fill="#D0C8B5" transform="translate(687,732)"/>
<path d="M0 0 C0.8353125 0.37125 0.8353125 0.37125 1.6875 0.75 C-1.125 2.8125 -1.125 2.8125 -4.3125 4.75 C-5.3025 4.42 -6.2925 4.09 -7.3125 3.75 C-2.88173077 -0.31153846 -2.88173077 -0.31153846 0 0 Z " fill="#E1D8C5" transform="translate(717.3125,715.25)"/>
</svg>
